<?xml version="1.0" encoding="UTF-8" standalone="no"?>
<!-- Created with Inkscape (http://www.inkscape.org/) -->

<svg
   xmlns:dc="http://purl.org/dc/elements/1.1/"
   xmlns:cc="http://creativecommons.org/ns#"
   xmlns:rdf="http://www.w3.org/1999/02/22-rdf-syntax-ns#"
   xmlns:svg="http://www.w3.org/2000/svg"
   xmlns="http://www.w3.org/2000/svg"
   xmlns:sodipodi="http://sodipodi.sourceforge.net/DTD/sodipodi-0.dtd"
   xmlns:inkscape="http://www.inkscape.org/namespaces/inkscape"
   width="200"
   height="200"
   viewBox="0 0 52.916664 52.916668"
   version="1.1"
   id="svg8"
   inkscape:version="0.92.0 r15299"
   sodipodi:docname="Face4.svg"
   inkscape:export-filename="D:\Unity Data\FlipBlock3D\Assets\TextureBlock\Face4.png"
   inkscape:export-xdpi="96"
   inkscape:export-ydpi="96">
  <defs
     id="defs2" />
  <sodipodi:namedview
     id="base"
     pagecolor="#ffffff"
     bordercolor="#666666"
     borderopacity="1.0"
     inkscape:pageopacity="0.0"
     inkscape:pageshadow="2"
     inkscape:zoom="2.8284271"
     inkscape:cx="46.694522"
     inkscape:cy="106.35935"
     inkscape:document-units="px"
     inkscape:current-layer="layer2"
     showgrid="false"
     units="px"
     inkscape:window-width="1920"
     inkscape:window-height="1017"
     inkscape:window-x="-8"
     inkscape:window-y="-8"
     inkscape:window-maximized="1" />
  <metadata
     id="metadata5">
    <rdf:RDF>
      <cc:Work
         rdf:about="">
        <dc:format>image/svg+xml</dc:format>
        <dc:type
           rdf:resource="http://purl.org/dc/dcmitype/StillImage" />
        <dc:title />
      </cc:Work>
    </rdf:RDF>
  </metadata>
  <g
     inkscape:label="Tło"
     inkscape:groupmode="layer"
     id="layer1"
     transform="translate(0,-244.08332)">
    <rect
       style="fill:#00ffff;stroke:none;stroke-width:2.73731565;stroke-linejoin:round;stroke-miterlimit:4;stroke-dasharray:none;stroke-opacity:1"
       id="rect4485"
       width="52.916668"
       height="52.916668"
       x="0"
       y="244.08331" />
  </g>
  <g
     inkscape:groupmode="layer"
     id="layer2"
     inkscape:label="Wzór">
    <path
       sodipodi:type="spiral"
       style="fill:none;fill-rule:evenodd;stroke:#000000;stroke-width:3;stroke-linecap:round;stroke-miterlimit:4;stroke-dasharray:none"
       id="path4514"
       sodipodi:cx="24.552046"
       sodipodi:cy="30.636921"
       sodipodi:expansion="1"
       sodipodi:revolution="3"
       sodipodi:radius="27.493584"
       sodipodi:argument="-18.064157"
       sodipodi:t0="0"
       d="m 24.552046,30.636921 c 0.974735,0.974736 -0.833025,1.794824 -1.620076,1.620074 -2.132859,-0.473561 -2.475728,-3.205488 -1.620073,-4.860225 1.530566,-2.959937 5.505114,-3.306692 8.100375,-1.620073 3.80865,2.475181 4.162283,7.835938 1.620072,11.340526 -3.388368,4.671064 -10.177834,5.028368 -14.580675,1.62007 -5.540526,-4.288994 -5.899883,-12.525009 -1.62007,-17.820824 5.183426,-6.413943 14.875157,-6.77454 21.060975,-1.62007 7.289771,6.074365 7.65117,17.227159 1.620068,24.301125 C 30.549496,51.764698 17.932245,52.126641 9.9713673,45.217592 0.925712,37.36709 0.56338239,23.283087 8.3513007,14.436167 17.088168,4.5112592 32.640546,4.1486458 42.372875,12.816101 53.177605,22.43862 53.540433,39.460565 43.99294,50.077826"
       transform="matrix(0.98250686,0,0,1.0848151,0.09770415,-4.2973378)" />
  </g>
</svg>
